<svg xmlns="http://www.w3.org/2000/svg" viewBox="0 0 403.59 106.36"><title>city-of-philadelphia-all-gray</title><path d="M108.06,81.37v14h-6.77V57.27q6.77-.29,7.92-0.29,9,0,13.22,2.77t4.18,8.66q0,13.13-15.48,13.13Q110,81.55,108.06,81.37Zm0-18.24V75.35q1.72,0.18,2.71.18,4.64,0,6.77-1.55t2.14-5q0-5.94-9.56-5.94A15.85,15.85,0,0,0,108.06,63.13Z" style="fill:#444"/><path d="M150.27,95.42V78.22a5.5,5.5,0,0,0-1.62-4.14,5.81,5.81,0,0,0-4.22-1.56,6.9,6.9,0,0,0-3.26.87,6,6,0,0,0-2.34,2v20h-6.62V57.11l6.62-1.56V69.28a10,10,0,0,1,7-2.29q5.24,0,8.13,2.91t2.89,8.32v17.2h-6.54Z" style="fill:#444"/><path d="M165.6,95.42V72.85H162V67.51h10.16V95.42H165.6ZM169,56.7a3.78,3.78,0,1,1-2.67,1.11A3.64,3.64,0,0,1,169,56.7Z" style="fill:#444"/><path d="M180.89,57.11l6.52-1.56V86.92q0,5.16,3.07,6.15a5.35,5.35,0,0,1-5.16,2.87q-4.43,0-4.43-6.15V57.11Z" style="fill:#444"/><path d="M211,92.63A6.3,6.3,0,0,1,207.95,95a11.76,11.76,0,0,1-4.6.92,10.4,10.4,0,0,1-7.09-2.25,8,8,0,0,1-2.58-6.4,9,9,0,0,1,3.63-7.58Q201,77,207.65,77a11.39,11.39,0,0,1,2.71.39q0-4.92-6.23-4.92A13.8,13.8,0,0,0,198,73.66l-1.41-5.06a18.31,18.31,0,0,1,8-1.62q6.38,0,9.35,2.91t3,11v6q0,5.58,2.24,7a3.51,3.51,0,0,1-1.8,1.73,7.25,7.25,0,0,1-2.27.33,3.62,3.62,0,0,1-2.53-1A5.31,5.31,0,0,1,211,92.63Zm-0.62-10.34a13.91,13.91,0,0,0-2.5-.34q-7.71,0-7.71,5.05,0,3.75,4.35,3.75,5.86,0,5.86-5.86V82.28Z" style="fill:#444"/><path d="M241.89,95.42V93.72a6.61,6.61,0,0,1-2.74,1.55,12.16,12.16,0,0,1-4,.66,11.76,11.76,0,0,1-9.18-3.7q-3.35-3.7-3.35-10.32a15.24,15.24,0,0,1,3.84-10.77A12.57,12.57,0,0,1,236.1,67a12.76,12.76,0,0,1,5.78,1.3V57.11l6.51-1.56V95.42h-6.51Zm0-21.24a6.88,6.88,0,0,0-4.35-1.67,7.61,7.61,0,0,0-6,2.38q-2.11,2.38-2.11,6.84,0,8.7,8.39,8.7a6.33,6.33,0,0,0,2.31-.56,4.21,4.21,0,0,0,1.78-1.13V74.18Z" style="fill:#444"/><path d="M279.82,83.46H259.89a7.07,7.07,0,0,0,2.29,5.19,8.31,8.31,0,0,0,5.68,1.85q4.46,0,6.78-2.32l2.53,5q-3.44,2.79-10.27,2.79-6.38,0-10.1-3.74t-3.71-10.44a14.47,14.47,0,0,1,4.08-10.68,14.3,14.3,0,0,1,19.53-.47,12.4,12.4,0,0,1,3.67,9.22A18.16,18.16,0,0,1,279.82,83.46Zm-19.7-4.9h13.71q-0.68-6.12-6.77-6.12Q261.48,72.44,260.13,78.56Z" style="fill:#444"/><path d="M286.7,57.11l6.51-1.56V86.92q0,5.16,3.07,6.15a5.35,5.35,0,0,1-5.16,2.87q-4.43,0-4.43-6.15V57.11Z" style="fill:#444"/><path d="M307.31,94.71v11.65H300.8V67.51h6.51v1.88a8.27,8.27,0,0,1,6-2.4q13.34,0,13.34,14.7,0,6.85-3.69,10.55t-10.07,3.7A12.67,12.67,0,0,1,307.31,94.71Zm0-20.38V89a6.39,6.39,0,0,0,4.14,1.43q4.51,0,6.47-2.15t2-6.79q0-5-2-7t-6.46-2A5.74,5.74,0,0,0,307.31,74.34Z" style="fill:#444"/><path d="M350.46,95.42V78.22a5.5,5.5,0,0,0-1.62-4.14,5.82,5.82,0,0,0-4.22-1.56,6.9,6.9,0,0,0-3.26.87,6,6,0,0,0-2.34,2v20H332.4V57.11L339,55.55V69.28A10,10,0,0,1,346,67q5.24,0,8.13,2.91T357,78.22v17.2h-6.54Z" style="fill:#444"/><path d="M365.78,95.42V72.85h-3.57V67.51h10.16V95.42h-6.59Zm3.36-38.72a3.78,3.78,0,1,1-2.67,1.11A3.64,3.64,0,0,1,369.14,56.7Z" style="fill:#444"/><path d="M395.48,92.63A6.3,6.3,0,0,1,392.4,95a11.76,11.76,0,0,1-4.6.92,10.4,10.4,0,0,1-7.09-2.25,8,8,0,0,1-2.58-6.4,9,9,0,0,1,3.63-7.58Q385.4,77,392.1,77a11.39,11.39,0,0,1,2.71.39q0-4.92-6.23-4.92a13.8,13.8,0,0,0-6.15,1.22L381,68.61A18.31,18.31,0,0,1,389,67q6.38,0,9.35,2.91t3,11v6q0,5.58,2.24,7a3.51,3.51,0,0,1-1.8,1.73,7.25,7.25,0,0,1-2.27.33,3.62,3.62,0,0,1-2.53-1A5.31,5.31,0,0,1,395.48,92.63Zm-0.62-10.34a13.91,13.91,0,0,0-2.5-.34q-7.71,0-7.71,5.05,0,3.75,4.35,3.75,5.86,0,5.86-5.86V82.28Z" style="fill:#444"/><path d="M117.44,18.83l-1.64,3.3a5.89,5.89,0,0,0-4.3-1.34,5.55,5.55,0,0,0-4.61,2.36,9.56,9.56,0,0,0-1.8,6,9,9,0,0,0,1.67,5.73A5.37,5.37,0,0,0,111.21,37a6,6,0,0,0,5-2.27L118,37.91q-2.44,2.59-7.15,2.59a9,9,0,0,1-7.32-3.1Q101,34.3,101,28.95a12.32,12.32,0,0,1,2.89-8.34,9.34,9.34,0,0,1,7.41-3.35A10.81,10.81,0,0,1,117.44,18.83Z" style="fill:#444"/><path d="M122.06,40.12V26.83H120V23.68h6V40.12h-3.88Zm2-22.81a2.23,2.23,0,1,1-1.57.65A2.14,2.14,0,0,1,124,17.31Z" style="fill:#444"/><path d="M131,26.77h-1.9V23.68H131V20.33l3.84-1.41v4.76h4.51v3.09h-4.51V34a4.25,4.25,0,0,0,.55,2.49,2.28,2.28,0,0,0,1.93.73,4.76,4.76,0,0,0,2.58-.75V40a12.23,12.23,0,0,1-3.81.46A5,5,0,0,1,132.32,39a5.51,5.51,0,0,1-1.32-4V26.77Z" style="fill:#444"/><path d="M150.15,42.76a5.28,5.28,0,0,1-2.63,2.73,9.81,9.81,0,0,1-4.71,1.08V43.18q4.44,0,4.44-2.23A13.69,13.69,0,0,0,146,36.44l-5.14-12.76h4L149.34,35l4-11.36h4Z" style="fill:#444"/><path d="M163.65,31.86a8.7,8.7,0,0,1,2.17-6.12,8.35,8.35,0,0,1,11.55-.09,8.87,8.87,0,0,1,2.07,6.22,8.92,8.92,0,0,1-2.11,6.25,8.39,8.39,0,0,1-11.6,0A9,9,0,0,1,163.65,31.86Zm4,0q0,5.43,3.91,5.43a3.36,3.36,0,0,0,2.85-1.41,6.64,6.64,0,0,0,1.05-4q0-5.36-3.9-5.36a3.38,3.38,0,0,0-2.86,1.41A6.46,6.46,0,0,0,167.64,31.86Z" style="fill:#444"/><path d="M191.68,20.46a6.76,6.76,0,0,0-1.93-.41,2.3,2.3,0,0,0-1.85.94,3.53,3.53,0,0,0-.76,2.3c0,0.13,0,.27,0,0.4h3.41v3.16h-3.35V40.12h-3.84V26.84H181V23.68h2.41a7.52,7.52,0,0,1,1.79-4.88,5.52,5.52,0,0,1,4.31-1.86,11.8,11.8,0,0,1,3.33.6Z" style="fill:#444"/><path d="M34.81,83.51c0.24,2.51.72,6.38,1.06,7.85,15.52,4.11,26.15,2.09,28.63.39,1.84-1.27,3.08-1.91.57-7.11C59.44,87,47.78,86.8,34.81,83.51" style="fill:#444"/><path d="M28.52,90.59a3.32,3.32,0,0,0-3.16,5.69l-0.77,1.53a3.48,3.48,0,0,0,1.29.72,2.78,2.78,0,0,0,1.37.15L27.5,97a3.31,3.31,0,0,0,1-6.46" style="fill:#444"/><path d="M84.79,20.16c0.79-2.83-1-3.34-1.67-3.51L64.23,11.37c-1.46-.41-1-3.72-2.31-4.1L47.05,3.12c-1.35-.38-2.64,2.71-4.1,2.31L24.07,0.15C23.44,0,21.61-.54,20.82,2.29L16.52,17.66a0.32,0.32,0,0,1-.43.24l-1.35-.38a1,1,0,0,0-1.22.69,15.83,15.83,0,0,0-1.36,3.47,23.07,23.07,0,0,0-.78,4.19,0.93,0.93,0,0,0,.69,1.22l12.1,3.38a1.78,1.78,0,0,0,2.31-1.07c1.29-2.75,4.57-8,5.67-8.59,1.47-.82,10,0.59,10,0.59a9.42,9.42,0,0,0-.58,1.82c-0.33,1.35.43,4.65-.34,5.09C37,30.69,29.44,27.07,26.94,34.15c-6.36,18-11,25.7-18.1,30.39C12.16,68.43,20,72.54,31.29,76a5.38,5.38,0,0,1-.12-1.05,35.24,35.24,0,0,0-.28-4.12c-0.27-2.49-.42-3.7-0.48-4.95a13.51,13.51,0,0,1,.72-4.49l0.24-.83c0.84-2.88,3.53-10.89,4.62-13.15,0.19-.4.42-0.33,0.48-0.31s0.3,0.08.25,0.52c-0.29,2.48-2.32,10.69-3.17,13.57-0.08.29-.16,0.55-0.24,0.81A11,11,0,0,0,32.86,66c0,1.06.31,2.34,0.59,4.88a38,38,0,0,1,.29,4.25,5.4,5.4,0,0,0,.3,1.6l0.2,0.06c12.91,3.61,22.87,4.4,28.12,2.64-3.6-7.68-3.6-16.67.28-35.35,1.53-7.36-6.81-8.18-9.19-12.41-0.44-.77,2-3.2,2.37-4.52a7.59,7.59,0,0,0,.42-1.86s8.42,3.32,9.25,4.79c0.62,1.1.72,7.26,0.4,10.28a1.78,1.78,0,0,0,1.42,2.11l12.1,3.38a0.93,0.93,0,0,0,1.22-.69,22.91,22.91,0,0,0,1.5-4,15.86,15.86,0,0,0,.64-3.67,1,1,0,0,0-.68-1.22L80.73,36a0.32,0.32,0,0,1-.24-0.42" style="fill:#444"/><path d="M3.87,67.59C-1,70.92-.39,72.67,1,74.44c3.33,4.31,12.29,10.73,28.67,15.31l3.72,1c-0.26-1.29-.85-5.45-1.13-7.94C18.57,79,7.7,72.72,3.87,67.59" style="fill:#444"/></svg>