<svg width="24" height="24" viewBox="0 0 24 24" fill="none" xmlns="http://www.w3.org/2000/svg">
<path fill-rule="evenodd" clip-rule="evenodd" d="M20.71 19.29L17.31 15.9C18.407 14.5024 19.0022 12.7767 19 11C19 6.58172 15.4183 3 11 3C6.58172 3 3 6.58172 3 11C3 15.4183 6.58172 19 11 19C12.7767 19.0022 14.5025 18.407 15.9 17.31L19.29 20.71C19.6789 21.1021 20.3121 21.1047 20.7042 20.7158C20.7061 20.7139 20.7081 20.7119 20.71 20.71V20.71C21.1021 20.3211 21.1047 19.6879 20.7158 19.2958C20.7139 19.2939 20.7119 19.2919 20.71 19.29L20.71 19.29ZM5 11V11C5 7.68629 7.68629 5 11 5C14.3137 5 17 7.68629 17 11C17 14.3137 14.3137 17 11 17C7.68629 17 5 14.3137 5 11L5 11Z" fill="white"/>
</svg>
